<svg width="21" height="23" viewBox="0 0 21 23" fill="none" xmlns="http://www.w3.org/2000/svg">
<path d="M19.8398 12.9004L3.58984 22.2754C3.16016 22.5098 2.73047 22.5488 2.30078 22.4707C1.87109 22.3926 1.51953 22.1582 1.20703 21.8457C0.894531 21.4941 0.777344 21.1035 0.777344 20.6348L0.777344 1.88477C0.777344 1.41602 0.894531 0.986328 1.20703 0.673828C1.51953 0.322266 1.87109 0.126953 2.30078 0.0488281C2.73047 -0.0292969 3.16016 0.0488281 3.58984 0.283203L19.8398 9.61914C20.2305 9.85352 20.5039 10.166 20.6602 10.5957C20.8164 11.0254 20.8164 11.4551 20.6602 11.8848C20.5039 12.3145 20.2305 12.666 19.8398 12.9004Z" fill="#16113A"/>
</svg>
