<?xml version="1.0" encoding="UTF-8"?>
<svg width="84px" height="27px" viewBox="0 0 84 27" version="1.1" xmlns="http://www.w3.org/2000/svg" xmlns:xlink="http://www.w3.org/1999/xlink">
    <!-- Generator: Sketch 58 (84663) - https://sketch.com -->
    <title>logo-airbnb</title>
    <desc>Created with Sketch.</desc>
    <g id="Page-1" stroke="none" stroke-width="1" fill="none" fill-rule="evenodd">
        <g id="about-4a" transform="translate(-271.000000, -3007.000000)" fill="#8E9697" fill-rule="nonzero">
            <g id="Group-5" transform="translate(240.000000, 3007.000000)">
                <g id="svg" transform="translate(25.263158, 0.259259)">
                    <path d="M50.3287596,6.55114374 C50.3287596,7.49075001 49.5757038,8.24765506 48.640876,8.24765506 C47.7060482,8.24765506 46.9529924,7.49075001 46.9529924,6.55114374 C46.9529924,5.61153746 47.6800807,4.85463241 48.640876,4.85463241 C49.6016713,4.88073258 50.3287596,5.63763764 50.3287596,6.55114374 Z M43.3694857,9.97026656 C43.3694857,10.1268676 43.3694857,10.3878694 43.3694857,10.3878694 C43.3694857,10.3878694 42.5644951,9.34386238 40.850644,9.34386238 C38.0201931,9.34386238 35.8129607,11.5101768 35.8129607,14.5116969 C35.8129607,17.4871167 37.9942257,19.6795314 40.850644,19.6795314 C42.5904625,19.6795314 43.3694857,18.6094242 43.3694857,18.6094242 L43.3694857,19.0531272 C43.3694857,19.2619286 43.5252903,19.4185296 43.7330299,19.4185296 L45.8363925,19.4185296 L45.8363925,9.60486412 C45.8363925,9.60486412 43.9148019,9.60486412 43.7330299,9.60486412 C43.5252903,9.60486412 43.3694857,9.78756534 43.3694857,9.97026656 Z M43.3694857,16.2604086 C42.9799741,16.8346124 42.2009509,17.3305157 41.2661231,17.3305157 C39.6042069,17.3305157 38.3318024,16.2865087 38.3318024,14.5116969 C38.3318024,12.736885 39.6042069,11.6928781 41.2661231,11.6928781 C42.1749835,11.6928781 43.0059415,12.2148815 43.3694857,12.7629852 L43.3694857,16.2604086 Z M47.3944389,9.60486412 L49.8873131,9.60486412 L49.8873131,19.4185296 L47.3944389,19.4185296 L47.3944389,9.60486412 Z M84.6317476,9.34386238 C82.9178966,9.34386238 82.1129059,10.3878694 82.1129059,10.3878694 L82.1129059,4.88073258 L79.6200317,4.88073258 L79.6200317,19.4185296 C79.6200317,19.4185296 81.5416223,19.4185296 81.7233943,19.4185296 C81.9311339,19.4185296 82.0869385,19.2358284 82.0869385,19.0531272 L82.0869385,18.6094242 L82.0869385,18.6094242 C82.0869385,18.6094242 82.8919291,19.6795314 84.6057802,19.6795314 C87.4362311,19.6795314 89.6434635,17.4871167 89.6434635,14.5116969 C89.6434635,11.536277 87.4362311,9.34386238 84.6317476,9.34386238 Z M84.2162686,17.3044155 C83.2554733,17.3044155 82.5024175,16.8085122 82.1129059,16.2343084 L82.1129059,12.736885 C82.5024175,12.2148815 83.3333756,11.6667779 84.2162686,11.6667779 C85.8781847,11.6667779 87.1505893,12.7107849 87.1505893,14.4855967 C87.1505893,16.2604086 85.8781847,17.3044155 84.2162686,17.3044155 Z M78.3216597,13.5981908 L78.3216597,19.4446298 L75.8287855,19.4446298 L75.8287855,13.8852927 C75.8287855,12.2670819 75.3094367,11.6145775 73.907195,11.6145775 C73.1541392,11.6145775 72.375116,12.0060802 71.8817346,12.580284 L71.8817346,19.4185296 L69.3888604,19.4185296 L69.3888604,9.60486412 L71.3623859,9.60486412 C71.5701254,9.60486412 71.72593,9.78756534 71.72593,9.97026656 L71.72593,10.3878694 C72.4530183,9.6309643 73.4138136,9.34386238 74.3746089,9.34386238 C75.4652413,9.34386238 76.3741017,9.65706447 77.1011901,10.2834687 C77.984083,11.0142735 78.3216597,11.9538798 78.3216597,13.5981908 Z M63.3384469,9.34386238 C61.6245959,9.34386238 60.8196053,10.3878694 60.8196053,10.3878694 L60.8196053,4.88073258 L58.3267311,4.88073258 L58.3267311,19.4185296 C58.3267311,19.4185296 60.2483216,19.4185296 60.4300937,19.4185296 C60.6378332,19.4185296 60.7936378,19.2358284 60.7936378,19.0531272 L60.7936378,18.6094242 L60.7936378,18.6094242 C60.7936378,18.6094242 61.5986285,19.6795314 63.3124795,19.6795314 C66.1429304,19.6795314 68.3501628,17.4871167 68.3501628,14.5116969 C68.3761303,11.536277 66.1688979,9.34386238 63.3384469,9.34386238 Z M62.9229679,17.3044155 C61.9621726,17.3044155 61.2091169,16.8085122 60.8196053,16.2343084 L60.8196053,12.736885 C61.2091169,12.2148815 62.0400749,11.6667779 62.9229679,11.6667779 C64.5848841,11.6667779 65.8572886,12.7107849 65.8572886,14.4855967 C65.8572886,16.2604086 64.5848841,17.3044155 62.9229679,17.3044155 Z M56.1714335,9.34386238 C56.9244893,9.34386238 57.3140009,9.47436325 57.3140009,9.47436325 L57.3140009,11.7972788 C57.3140009,11.7972788 55.2366057,11.0925741 53.9382337,12.580284 L53.9382337,19.4446298 L51.4453595,19.4446298 L51.4453595,9.60486412 C51.4453595,9.60486412 53.36695,9.60486412 53.5487221,9.60486412 C53.7564616,9.60486412 53.9122663,9.78756534 53.9122663,9.97026656 L53.9122663,10.3878694 C54.3796802,9.83976569 55.3924103,9.34386238 56.1714335,9.34386238 Z M30.281896,18.5311237 C30.1520588,18.2179216 30.0222216,17.8786194 29.8923844,17.5915174 C29.6846449,17.1217143 29.4769054,16.6780113 29.2951333,16.2604086 L29.2691659,16.2343084 C27.4774125,12.3192822 25.555822,8.35205576 23.5303617,4.43702962 L23.4524593,4.28042858 C23.2447198,3.88892596 23.0369803,3.47132318 22.8292408,3.05372039 C22.5695664,2.58391725 22.309892,2.08801394 21.894413,1.6182108 C21.0634549,0.574203833 19.8689526,2.27373675e-13 18.5965481,2.27373675e-13 C17.2981761,2.27373675e-13 16.1296413,0.574203833 15.2727158,1.56601045 C14.8832042,2.03581359 14.5975624,2.5317169 14.337888,3.00152004 C14.1301484,3.41912283 13.9224089,3.83672561 13.7146694,4.22822823 L13.6367671,4.38482927 C11.6372742,8.29985541 9.68971623,12.2670819 7.89796288,16.182108 L7.87199544,16.2343084 C7.69022336,16.6519112 7.48248385,17.0956141 7.27474433,17.5654173 C7.14490713,17.8525192 7.01506993,18.1657213 6.88523273,18.5050235 C6.54765601,19.47073 6.44378625,20.3842361 6.57362345,21.3238424 C6.85926529,23.2813554 8.15763728,24.9256664 9.94939063,25.6564713 C10.6245441,25.9435732 11.3256649,26.0740741 12.0527533,26.0740741 C12.2604928,26.0740741 12.5201672,26.0479739 12.7279067,26.0218737 C13.5848322,25.917473 14.4677252,25.6303711 15.3246507,25.1344678 C16.3893157,24.5341638 17.4020459,23.672858 18.5446132,22.4200497 C19.6871806,23.672858 20.7258782,24.5341638 21.7645758,25.1344678 C22.6215013,25.6303711 23.5043942,25.917473 24.3613197,26.0218737 C24.5690593,26.0479739 24.8287337,26.0740741 25.0364732,26.0740741 C25.7635615,26.0740741 26.4906498,25.9435732 27.1398358,25.6564713 C28.9575566,24.9256664 30.2299611,23.2552553 30.515603,21.3238424 C30.7233425,20.4103363 30.6194727,19.4968302 30.281896,18.5311237 Z M18.5705807,19.8883328 C17.1683389,18.1135209 16.2594785,16.4431098 15.9478692,15.0337004 C15.818032,14.4333964 15.7920646,13.9113929 15.8699669,13.4415897 C15.9219018,13.0239869 16.0777064,12.6585845 16.285446,12.3453824 C16.7788273,11.6406777 17.6097854,11.1969748 18.5705807,11.1969748 C19.5313759,11.1969748 20.3883014,11.6145775 20.8557154,12.3453824 C21.0634549,12.6585845 21.2192595,13.0239869 21.2711944,13.4415897 C21.3490967,13.9113929 21.3231293,14.4594965 21.1932921,15.0337004 C20.8816828,16.4170096 19.9728224,18.0874208 18.5705807,19.8883328 Z M28.9315892,21.115041 C28.7498171,22.47225 27.8409567,23.6467579 26.5685521,24.1687614 C25.9453336,24.4297631 25.2701801,24.5080636 24.5950267,24.4297631 C23.9458407,24.3514626 23.2966547,24.1426612 22.6215013,23.7511586 C21.6866734,23.2291551 20.7518456,22.4200497 19.6612131,21.2194417 C21.3750642,19.1053275 22.4137618,17.1739147 22.8032734,15.4513032 C22.9850454,14.6421978 23.0110129,13.9113929 22.9331105,13.2327883 C22.8292408,12.580284 22.5955338,11.97998 22.2319897,11.4579765 C21.426999,10.2834687 20.0766922,9.60486412 18.5705807,9.60486412 C17.0644691,9.60486412 15.7141623,10.3095688 14.9091716,11.4579765 C14.5456275,11.97998 14.3119205,12.580284 14.2080508,13.2327883 C14.104181,13.9113929 14.1301484,14.6682979 14.337888,15.4513032 C14.7273996,17.1739147 15.7920646,19.1314277 17.4799482,21.2455418 C16.4152832,22.4461499 15.4544879,23.2552553 14.51966,23.7772587 C13.8445066,24.1687614 13.1953206,24.3775627 12.5461346,24.4558633 C11.8450137,24.5341638 11.1698603,24.4297631 10.5726092,24.1948615 C9.30020463,23.672858 8.39134424,22.4983502 8.20957216,21.1411411 C8.13166984,20.4886368 8.18360472,19.8361324 8.44327912,19.1053275 C8.52118144,18.8443258 8.65101864,18.5833241 8.78085584,18.270122 C8.96262792,17.8525192 9.17036743,17.4088162 9.37810695,16.9651133 L9.40407439,16.9129129 C11.1958277,13.0239869 13.1174183,9.05676046 15.1169112,5.19393468 L15.1948135,5.03733363 C15.402553,4.64583102 15.6102925,4.22822823 15.818032,3.83672561 C16.0257716,3.41912283 16.2594785,3.02762021 16.5451203,2.68831795 C17.0904366,2.06191377 17.8175249,1.7226115 18.6225155,1.7226115 C19.4275062,1.7226115 20.1545945,2.06191377 20.6999107,2.68831795 C20.9855526,3.02762021 21.2192595,3.41912283 21.426999,3.83672561 C21.6347386,4.22822823 21.8424781,4.64583102 22.0502176,5.03733363 L22.1281199,5.19393468 C24.1016453,9.08286064 26.0232359,13.0500871 27.8149892,16.9390131 L27.8149892,16.9651133 C28.0227288,17.382716 28.2045008,17.8525192 28.4122404,18.270122 C28.5420776,18.5833241 28.6719148,18.8443258 28.7498171,19.1053275 C28.9575566,19.7839321 29.0354589,20.4364364 28.9315892,21.115041 Z" id="logo-airbnb"></path>
                </g>
            </g>
        </g>
    </g>
</svg>