<?xml version="1.0" encoding="UTF-8"?>
<svg width="101px" height="24px" viewBox="0 0 101 24" version="1.1" xmlns="http://www.w3.org/2000/svg" xmlns:xlink="http://www.w3.org/1999/xlink">
    <!-- Generator: Sketch 58 (84663) - https://sketch.com -->
    <title>logo-hellofresh</title>
    <desc>Created with Sketch.</desc>
    <g id="Page-1" stroke="none" stroke-width="1" fill="none" fill-rule="evenodd">
        <g id="about-4a" transform="translate(-1078.000000, -3008.000000)" fill-rule="nonzero">
            <g id="Group-5" transform="translate(240.000000, 3007.000000)">
                <g id="svg" transform="translate(25.263158, 0.259259)">
                    <g id="logo-hellofresh" transform="translate(813.310696, 1.629630)">
                        <path d="M66.9729525,3.60450794 L61.5749673,3.60450794 C61.2886401,3.60450794 61.0638014,3.82683598 61.0638014,4.10946032 L61.0638014,17.6870688 C61.0638014,17.9699259 61.2886401,18.192254 61.5749673,18.192254 L63.0061387,18.192254 C63.2922338,18.192254 63.5175366,17.9699259 63.5175366,17.6870688 L63.5175366,11.969164 C63.5175366,11.868127 63.6196305,11.7670899 63.7219565,11.7670899 L65.9710397,11.7670899 C66.2573668,11.7670899 66.4824375,11.5447619 66.4824375,11.2621376 L66.4824375,10.1910053 C66.4824375,9.90838095 66.2573668,9.68605291 65.9710397,9.68605291 L63.7219565,9.68605291 C63.6196305,9.68605291 63.5175366,9.58501587 63.5175366,9.48397884 L63.5175366,5.90764021 C63.5175366,5.80683598 63.6196305,5.70579894 63.7219565,5.70579894 L66.9729525,5.70579894 C67.2592796,5.70579894 67.4843504,5.4834709 67.4843504,5.20038095 L67.4843504,4.10946032 C67.4843504,3.82683598 67.2592796,3.60450794 66.9729525,3.60450794" id="Fill-1" fill="#8E9697"></path>
                        <path d="M72.4686232,3.60450794 C75.3311982,3.60450794 75.9036203,5.4834709 75.9036203,7.96842328 C75.9036203,10.2517672 75.4332921,11.1203598 74.3086345,11.706328 C74.2065405,11.746836 74.1450521,11.868127 74.1861218,11.989418 L74.1861218,11.989418 L75.9036203,17.7073228 C75.9651087,17.949672 75.8015264,18.192254 75.5356181,18.192254 L75.5356181,18.192254 L74.165703,18.192254 C73.8589571,18.192254 73.5930487,17.9901799 73.5113736,17.7073228 L73.5113736,17.7073228 L72.0393645,12.3328042 C71.9982949,12.2115132 71.896201,12.130963 71.7732242,12.130963 L71.7732242,12.130963 L71.303128,12.130963 C71.20057,12.130963 71.098476,12.2317672 71.098476,12.3328042 L71.098476,12.3328042 L71.098476,17.6870688 C71.098476,17.9699259 70.8738693,18.192254 70.5875422,18.192254 L70.5875422,18.192254 L69.1559067,18.192254 C68.8698116,18.192254 68.6449729,17.9699259 68.6449729,17.6870688 L68.6449729,17.6870688 L68.6449729,4.10946032 C68.6449729,3.82683598 68.8698116,3.60450794 69.1559067,3.60450794 L69.1559067,3.60450794 Z M72.0593193,5.62478307 L71.303128,5.62478307 C71.20057,5.62478307 71.098476,5.72582011 71.098476,5.82685714 L71.098476,5.82685714 L71.098476,9.98893122 C71.098476,10.0902011 71.20057,10.1910053 71.303128,10.1910053 L71.303128,10.1910053 L72.0593193,10.1910053 C73.1637901,10.1910053 73.4909548,9.68605291 73.4909548,7.90812698 C73.4909548,6.12996825 73.1637901,5.62478307 72.0593193,5.62478307 L72.0593193,5.62478307 Z" id="Combined-Shape" fill="#8E9697"></path>
                        <path d="M83.0736317,16.0304339 L79.7407284,16.0304339 C79.6386345,16.0304339 79.5360765,15.929164 79.5360765,15.8283598 L79.5360765,11.868127 C79.5360765,11.7670899 79.6386345,11.6660529 79.7407284,11.6660529 L81.8874856,11.6660529 C82.1738128,11.6660529 82.3988835,11.4439577 82.3988835,11.1608677 L82.3988835,10.130709 C82.3988835,9.84761905 82.1738128,9.62529101 81.8874856,9.62529101 L79.7407284,9.62529101 C79.6386345,9.62529101 79.5360765,9.52448677 79.5360765,9.42321693 L79.5360765,5.92789418 C79.5360765,5.82685714 79.6386345,5.72582011 79.7407284,5.72582011 L82.9098173,5.72582011 C83.1961444,5.72582011 83.4212151,5.50372487 83.4212151,5.22063492 L83.4212151,4.10946032 C83.4212151,3.82683598 83.1961444,3.60450794 82.9098173,3.60450794 L77.6139259,3.60450794 C77.3278309,3.60450794 77.1029922,3.82683598 77.1029922,4.10946032 L77.1029922,17.6870688 C77.1029922,17.9699259 77.3278309,18.192254 77.6139259,18.192254 L83.0736317,18.192254 C83.3597267,18.192254 83.5845654,17.9699259 83.5845654,17.6870688 L83.5845654,16.5353862 C83.5845654,16.2522963 83.3597267,16.0304339 83.0736317,16.0304339" id="Fill-3" fill="#8E9697"></path>
                        <path d="M89.0294211,10.0091852 C87.7409491,8.75646561 86.8821999,7.92838095 86.8821999,6.79671958 C86.8821999,6.04918519 87.2504341,5.44296296 88.0681138,5.44296296 C88.845188,5.44296296 89.2540278,5.96840212 89.2540278,7.44321693 L89.2540278,7.86761905 C89.2540278,8.06969312 89.438261,8.25151323 89.6424489,8.25151323 L91.0738524,8.25151323 C91.3191099,8.25151323 91.5235298,8.04943915 91.5235298,7.80685714 L91.5235298,7.32215873 C91.5235298,4.59462434 90.214871,3.36192593 88.0681138,3.36192593 C85.5735411,3.36192593 84.5310227,5.03881481 84.5310227,6.89775661 C84.5310227,8.97879365 85.8598682,10.3125291 87.0868518,11.4842328 C88.3340222,12.6561693 89.3563538,13.5652698 89.3563538,14.9190265 C89.3563538,16.0101799 88.7020244,16.3130582 88.047695,16.3130582 C87.0868518,16.3130582 86.6984308,15.6667937 86.6984308,14.5351323 L86.6984308,13.706582 C86.6984308,13.4239577 86.47336,13.2016296 86.1870329,13.2016296 L84.9398626,13.2016296 C84.6537675,13.2016296 84.4286967,13.4239577 84.4286967,13.706582 L84.4286967,14.7169524 C84.4286967,16.8787725 85.8192627,18.434836 88.0681138,18.434836 C90.214871,18.434836 91.7075309,17.0000635 91.7075309,14.7372063 C91.7075309,12.7371852 90.5420357,11.4842328 89.0294211,10.0091852" id="Fill-4" fill="#8E9697"></path>
                        <path d="M99.7263142,3.60450794 L98.3155615,3.60450794 C98.0294664,3.60450794 97.8041636,3.82683598 97.8041636,4.10946032 L97.8041636,9.54474074 C97.8041636,9.64554497 97.7020697,9.74681481 97.5999757,9.74681481 L95.4121489,9.74681481 C95.310055,9.74681481 95.207497,9.64554497 95.207497,9.54474074 L95.207497,4.10946032 C95.207497,3.82683598 94.9826583,3.60450794 94.6965632,3.60450794 L93.2855785,3.60450794 C92.9992514,3.60450794 92.7744126,3.82683598 92.7744126,4.10946032 L92.7744126,17.6870688 C92.7744126,17.9699259 92.9992514,18.192254 93.2855785,18.192254 L94.6965632,18.192254 C94.9826583,18.192254 95.207497,17.9699259 95.207497,17.6870688 L95.207497,12.090455 C95.207497,11.989418 95.310055,11.888381 95.4121489,11.888381 L97.5999757,11.888381 C97.7020697,11.888381 97.8041636,11.989418 97.8041636,12.090455 L97.8041636,17.6870688 C97.8041636,17.9699259 98.0294664,18.192254 98.3155615,18.192254 L99.7263142,18.192254 C100.012641,18.192254 100.237712,17.9699259 100.237712,17.6870688 L100.237712,4.10946032 C100.237712,3.82683598 100.012641,3.60450794 99.7263142,3.60450794" id="Fill-5" fill="#8E9697"></path>
                        <path d="M28.9891325,1.24344979e-14 C29.4576045,1.24344979e-14 30.1012604,0.0898624339 30.508244,0.517989418 C30.7806492,0.805037037 30.9068744,1.20126984 30.8832072,1.69597884 C30.8546673,2.82484656 30.8200946,3.96628571 30.7859859,5.09678307 C30.7490929,6.31446561 30.7115473,7.55414815 30.6822569,8.75935747 L30.6560482,9.95098413 L30.654424,10.0387513 L30.6739146,10.0466667 C31.3170033,10.305338 31.8257085,10.558859 32.1790078,10.7444432 L32.3041693,10.8107302 L32.3401342,10.8302857 L32.3480233,10.7900106 C32.6668348,9.2122963 33.2086288,8.0026455 33.9580912,7.19504762 C34.784124,6.30480423 35.6600437,6.11809524 36.2496362,6.11809524 C37.529755,6.11809524 38.9075592,7.07724868 38.9075592,9.18319577 C38.9075592,10.0976508 38.5945485,10.9920847 38.0488099,11.6367196 C37.412347,12.3889101 36.5016226,12.7863069 35.4147862,12.7863069 C35.1934279,12.7863069 34.9684152,12.7679735 34.7324063,12.7303247 L34.4924602,12.6862011 L34.4555671,12.6787513 L34.4560312,12.7166984 C34.4720414,14.301164 34.8070952,15.5068571 35.39924,16.1119153 C35.7438071,16.4641481 36.1728337,16.642709 36.6747182,16.642709 C36.7181082,16.642709 36.7621942,16.6399153 36.8067443,16.6373545 C37.1285722,16.6136085 37.7945032,16.4997672 38.6265688,16.0038942 C39.2029646,15.6518942 39.765326,15.1767298 40.3009068,14.5894743 L40.5287647,14.330963 L40.5378139,14.320254 L40.5357256,14.3065185 C39.6709435,8.45265608 40.2145937,3.38543915 41.9209548,1.39752381 C42.383858,0.858349206 42.9024489,0.585037037 43.4621093,0.585037037 C43.4839203,0.585037037 43.5057313,0.585269841 43.5275422,0.586201058 C43.9918377,0.60389418 44.4053181,0.852063492 44.7225055,1.3032381 C45.5881743,2.53231973 45.607656,4.97299684 44.7851118,7.87442752 L44.690253,8.19866667 L44.6487194,8.35580952 C44.6202336,8.4557291 43.9744593,10.7108434 42.7044797,13.0045716 L42.5708756,13.2419048 L42.5379271,13.3066243 L42.5395513,13.3161693 C42.893332,15.3836746 43.4789638,16.4817742 44.2813347,16.5834213 L44.3872197,16.5910265 L44.4081025,16.5914921 C44.5697822,16.5914921 44.7463119,16.5540944 44.9336524,16.480491 L45.0761218,16.4185185 L45.1649899,16.3761481 L45.173343,16.3868571 L45.239008,16.3440212 L45.2364557,16.3388995 L45.3371574,16.2772063 C45.7982334,16.0089286 46.2909309,15.5782735 46.7740576,15.0231395 L46.9804059,14.7777143 L47.0026809,14.7525714 L46.9998965,14.7379048 C46.9611472,14.5193016 46.9295909,14.3032593 46.8952502,14.0860529 C46.6012661,12.7967831 46.4458048,11.2595767 46.4889627,9.5533545 C46.4697041,8.30296296 46.5300323,7.10751323 46.6817811,6.0005291 C46.9831902,3.79843386 47.6013227,2.04308995 48.4220188,1.05786243 C48.8392117,0.557333333 49.2902813,0.292867725 49.727197,0.292867725 C49.7448314,0.292867725 49.7624658,0.293100529 49.7801002,0.294031746 C50.6623262,0.336460317 51.6228708,1.15212796 51.7423679,3.29545115 L51.7521376,3.53908995 L51.7523696,3.58495238 C51.7509774,4.03379894 51.7245258,4.52152381 51.6732468,5.03555556 C51.3852955,7.93001058 50.3866311,11.2407196 49.0568575,13.7366138 C49.3236939,15.1387937 49.7466877,16.1009735 50.3026356,16.1077249 C50.9599814,16.1156402 52.2760652,13.6784127 52.7916396,11.1806561 C53.1870216,8.60467725 53.9705926,6.89892063 55.2574404,6.16977778 C55.7314811,5.90112169 56.1809265,5.77075132 56.6315321,5.77075132 C57.0721602,5.77075132 57.5160369,5.89227513 57.9884534,6.14253968 C59.7894834,7.09657143 60.1342825,10.1665608 59.882064,12.5057778 C59.5166141,15.8993651 58.2000663,17.7389841 57.0568461,18.0567619 C56.7978988,18.1289312 56.5301342,18.1657143 56.2616735,18.1657143 C56.0064387,18.1657143 55.7558444,18.1328889 55.5168518,18.0684021 C53.9700729,17.7371869 53.3280527,16.2147768 53.0098296,14.5977577 L52.9716962,14.3952169 C51.5609435,18.1699048 49.8100323,18.9078942 48.4816509,17.5385397 C48.1570717,17.2551837 47.8655641,16.8780978 47.6173565,16.4134396 L47.4969084,16.1738413 L47.4762576,16.1305397 L47.4458614,16.1673228 C47.1395796,16.5372487 46.6307341,17.0685079 45.9462406,17.4982646 C45.9279101,17.509672 45.875935,17.5404021 45.8515717,17.554836 C45.773377,17.6018624 45.7070159,17.6395767 45.6404228,17.6758942 L45.5040462,17.7466376 L45.3645371,17.8130159 L45.3452785,17.8216296 C44.9649786,17.9901799 44.5842146,18.0979683 44.2122678,18.1426667 C44.2008982,18.1440635 44.1888326,18.1447619 44.1769989,18.1452275 C44.0523979,18.1575661 43.9412547,18.1640847 43.8347522,18.1654815 C43.811085,18.1675767 43.8015717,18.1680423 43.7920584,18.1680423 C42.64317,18.1680423 41.6561251,17.345573 41.0588212,15.901337 L40.9721772,15.6800635 L40.9406209,15.5913651 L40.9062802,15.6316402 C40.7169424,15.8544339 40.4018433,16.1964233 39.9758331,16.5614603 C38.7695004,17.6200212 37.4722112,18.1571005 36.1213227,18.1571005 C35.1242825,18.1571005 34.2379214,17.7713439 33.5578365,17.0415026 C32.5941161,16.0062339 32.1019838,14.311653 32.1594235,12.2447857 L32.1730714,11.9153862 L32.1742315,11.8958307 L32.1568292,11.8867513 C31.9735241,11.7919365 31.5041106,11.559748 30.8709674,11.3204931 L30.6762349,11.2486349 L30.6360935,11.2339683 L30.6353974,11.277037 C30.6005926,14.3873016 30.6748427,17.0107725 30.8337845,18.294455 C30.8412095,18.3554497 30.8221829,18.4166772 30.7815773,18.4623069 C30.7534241,18.4945891 30.7159897,18.5176626 30.6742927,18.529458 L30.6091778,18.5384339 L30.3377007,18.5382011 C29.7559972,18.5382011 29.2007454,18.503746 28.8032751,18.0865608 C28.4185666,17.6826455 28.2545202,16.9784127 28.3018546,15.9333545 C28.3575809,14.7530176 28.4000492,12.9288946 28.4321189,11.4780802 L28.4406096,11.0924233 L28.4496588,10.6843175 L28.4229752,10.6805926 L28.2232829,10.6552169 L28.0359463,10.636127 L27.9183062,10.6275132 L27.8469855,10.6232063 L27.777231,10.6195979 L27.7303606,10.6177354 C27.4581874,10.6049312 27.1894947,10.5984127 26.9314755,10.5984127 C26.5133544,10.5984127 26.1059067,10.6149418 25.7205021,10.6475344 C25.5560689,10.6624339 25.3874077,10.6802305 25.2102558,10.701407 L24.9376271,10.7357672 L24.9121036,10.7392593 L24.9114075,10.7653333 C24.8956294,11.397164 24.8877403,11.9696296 24.8877403,12.4668995 C24.8431902,14.7812063 24.7694042,20.3880635 25.0441297,22.5117037 C25.0515547,22.5699048 25.0336883,22.627873 24.995403,22.6711746 C24.9687967,22.7014392 24.9337342,22.7231158 24.8947528,22.7342042 L24.833909,22.7426455 L24.4075063,22.7421404 C23.9362686,22.7391454 23.3415005,22.7032046 22.930785,22.2719153 C22.5300663,21.8510053 22.359291,21.1165079 22.4087137,20.0265185 C22.4138184,19.7860317 22.5347069,14.1053757 22.5968914,12.2957884 L22.6125536,11.7913307 L22.6261274,11.2716825 L22.6272876,11.2281481 L22.586218,11.2418836 C22.2957143,11.3391958 22.0567216,11.44 21.8258501,11.537545 C21.6666764,11.6045926 21.5235128,11.6648889 21.3715321,11.7230899 L21.2303988,11.7750926 L21.0993589,11.827619 L20.9970329,11.8688254 C20.9524828,11.8872169 20.9074687,11.9044444 20.8631506,11.9212063 C20.7882044,11.9500741 20.7281082,11.9728889 20.6721885,11.9982646 C20.4956124,12.0769524 19.9619395,12.3088254 19.8807284,12.3381587 C19.8447635,12.350963 19.8069424,12.3574815 19.7684251,12.3574815 C19.6879101,12.3574815 19.6099474,12.3269841 19.5493872,12.2711111 C19.5236317,12.2464339 19.3199078,12.0411005 19.2124772,11.7072593 C19.050287,11.2023069 19.0778988,10.5115767 19.6890703,10.2266243 C20.0515038,10.0576085 20.3375988,9.93445503 20.5394664,9.86042328 C20.8861604,9.73259436 21.56645,9.50030423 22.40322,9.30826297 L22.6351766,9.25699471 L22.6590759,9.25187302 L22.6593079,9.22719577 C22.6836713,6.51130159 22.6363368,3.78982011 22.549789,2.89655026 C22.5379554,2.77316402 22.6286798,2.66421164 22.7562972,2.64861376 C22.8581591,2.63650794 23.0201172,2.62184127 23.2150238,2.62184127 C23.7029865,2.62184127 24.3737901,2.71542857 24.797248,3.16101587 C25.0807907,3.4597037 25.2121206,3.87246561 25.1875253,4.38742857 C25.1864051,4.40923189 25.0639376,6.47888865 24.9763401,8.74341942 L24.9670952,8.98670899 L24.965935,9.01860317 C25.0510906,9.01790476 25.1538807,9.01697354 25.1889175,9.01697354 C25.3376498,9.01697354 25.4880063,9.01930159 25.6402191,9.02465608 C26.09463,9.04048677 26.5840869,9.08134857 27.0997987,9.14652631 L27.4913679,9.19995767 L27.5735072,9.20880423 C27.7625356,9.23255026 27.9511516,9.26198707 28.1448551,9.29787341 L28.4399135,9.35663492 L28.4758784,9.36431746 L28.4765745,9.32730159 C28.5450238,5.24368254 28.4921206,1.51369312 28.3477969,0.257015873 C28.3345711,0.143873016 28.414622,0.0433015873 28.5301738,0.0284021164 C28.6324998,0.0153650794 28.794922,1.24344979e-14 28.9891325,1.24344979e-14 Z M56.9204115,7.26675132 C56.7101908,7.26675132 56.1767499,7.34311111 55.7646617,8.05013757 C54.5427828,10.1479365 54.5543843,15.257291 55.7846164,16.5924233 C55.8658275,16.6804233 55.97233,16.7232593 56.1106209,16.7232593 C56.2584251,16.7232593 56.4076215,16.6687831 56.4832638,16.6180317 C56.6561274,16.5025608 56.8166933,16.3097989 56.9744749,16.0281058 C58.0601512,14.1356402 58.600321,9.77801058 57.6650012,7.91417989 C57.5933034,7.7717037 57.334356,7.3042328 57.0150804,7.27164021 C56.9844523,7.26838095 56.9528959,7.26675132 56.9204115,7.26675132 Z M36.1788665,7.18201058 C35.6596231,7.18201058 34.9450523,8.27703894 34.4633854,11.3228119 L34.4175139,11.6236825 L34.4131053,11.6539471 L34.4437335,11.6581376 C34.5530205,11.673037 34.6657879,11.6804868 34.7787873,11.6804868 C35.3171008,11.6804868 36.0630827,11.517291 36.5584704,10.7394921 C37.1814755,9.76101587 37.1972536,8.35092063 36.5948993,7.45997884 C36.5092796,7.33333333 36.3675083,7.18201058 36.1788665,7.18201058 Z M50.1404455,2.29824339 C50.0965915,2.29824339 50.0381195,2.33432804 49.975935,2.39974603 C49.4394777,2.96150265 48.7341014,5.37498413 48.7287647,9.84133333 C48.7301568,10.4189206 48.7501116,10.9930159 48.7879327,11.5456931 C48.9304002,11.2574815 49.6237109,9.80617989 50.0028507,8.07993651 C50.3181817,6.64283598 50.4901172,5.21132275 50.4901172,3.81985185 C50.4901172,3.79470899 50.4873328,3.69646561 50.4873328,3.69646561 C50.4722508,2.67026455 50.2717754,2.29824339 50.1404455,2.29824339 Z M43.8083006,2.60670899 C43.7507567,2.60670899 43.6799871,2.64838095 43.6034166,2.7277672 C42.9017528,3.45341799 42.2130827,6.42725926 42.3506775,11.2477037 C42.3506775,11.2477037 43.5379837,9.43136508 44.1303606,5.22435979 C44.3449899,3.70019048 44.1303606,2.90120635 43.9236203,2.67049735 C43.8665405,2.60670899 43.8224545,2.60670899 43.8083006,2.60670899 Z" id="Combined-Shape" fill="#8E9697"></path>
                        <path d="M6.32288463,3.2504127 C8.04409572,2.66630688 10.132613,2.82577778 11.6329299,3.23807407 C14.3066311,3.97280423 15.6540391,6.03684656 15.9329412,6.03684656 C15.9821319,6.03684656 16.0090476,6.00192593 15.9921093,5.89343915 C15.9668178,5.73164021 15.8772536,5.58893122 15.7832808,5.4285291 C15.6893079,5.26812698 15.4941693,5.09166138 15.4934732,5.06372487 C15.4899927,4.92567196 15.9696022,5.10004233 16.0549899,5.12797884 C16.3932921,5.23925926 16.6842598,5.41106878 16.8594438,5.73792593 C17.1051653,6.19934392 17.0842825,6.67822222 17.0160652,7.18038095 C16.9429752,7.71839153 16.9754596,8.24220106 16.9673385,8.78300529 C16.9585213,9.37293122 16.9097946,9.96425397 16.809789,10.5457989 C16.809789,10.5457989 11.0941523,19.1537354 3.49836284,15.6421164 C3.38489934,15.5897354 3.2593702,15.3746243 3.0375479,15.3746243 C2.87744603,15.3746243 2.67766675,15.4644868 2.55097744,15.8670053 C2.41291858,16.3058413 0.926755597,16.156381 0.443665614,15.1813968 C-0.0663400457,14.1519365 0.192375291,13.397418 0.223931601,13.3126772 C0.286580158,13.1422646 0.348300588,12.971619 0.381017057,12.7900317 C0.510026678,12.0720635 0.453642976,11.3268571 0.512811058,10.601672 C0.65713477,8.83771429 1.38849866,7.22764021 2.52475786,5.8850582 C3.53363166,4.69286772 4.84182634,3.75280423 6.32288463,3.2504127 Z M13.7031167,5.53189418 C11.9756407,4.43166138 8.41836284,3.62848677 6.10570297,4.92730159 C5.7560312,5.12355556 6.44864581,6.1269418 6.53844207,6.09318519 C9.98968146,4.79879365 14.1042995,6.04196825 13.8987194,5.68950265 C13.8984873,5.66668783 13.8388552,5.61826455 13.7031167,5.53189418 Z" id="Combined-Shape" fill="#CAD4D5"></path>
                        <path d="M3.0375479,15.3746243 C2.87744603,15.3746243 2.67766675,15.4644868 2.55097744,15.8670053 C2.41291858,16.3058413 0.926755597,16.156381 0.443665614,15.1813968 C-0.0663400457,14.1519365 0.192375291,13.397418 0.231356615,13.2961481 C0.213954238,13.3396825 0.204208907,13.3669206 0.194231545,13.3941587 C0.206529224,13.3615661 0.217666745,13.3287407 0.231124584,13.2966138 C0.217666745,13.3289735 0.206297193,13.3620317 0.193999513,13.3948571 C0.159890854,13.4884444 0.128334544,13.5831958 0.101418868,13.6798095 C0.0874969661,13.7319577 0.0754313182,13.7843386 0.0642937969,13.8369524 C0.0608133215,13.8534815 0.0575648779,13.8702434 0.0543164342,13.8867725 C0.0434109446,13.9438095 0.0334335819,14.0006138 0.0260085677,14.0576508 C0.0334335819,14.0008466 0.0434109446,13.9440423 0.0543164342,13.8872381 C-0.00902821779,14.2089735 -0.0210938658,14.5423492 0.0401625009,14.8645503 C0.209313605,15.7529312 0.859930469,16.2101587 1.6808586,16.4499471 C2.21708384,16.6066243 2.73428248,16.7432804 3.22502951,17.0198519 C3.66356941,17.2670899 4.09073975,17.535746 4.55480313,17.734328 C6.55677257,18.5908148 8.89913251,18.5274921 10.9198965,17.7725079 C12.9886911,16.9998307 14.7560765,15.521291 15.7999871,13.5613122 C16.3011755,12.6198519 16.6297324,11.5962116 16.809789,10.5457989 C16.809789,10.5457989 11.0941523,19.1537354 3.49836284,15.6421164 C3.38489934,15.5897354 3.2593702,15.3746243 3.0375479,15.3746243 Z" id="Fill-9" fill="#8E9697"></path>
                    </g>
                </g>
            </g>
        </g>
    </g>
</svg>