<?xml version="1.0" encoding="UTF-8"?>
<svg width="160px" height="14px" viewBox="0 0 160 14" version="1.1" xmlns="http://www.w3.org/2000/svg" xmlns:xlink="http://www.w3.org/1999/xlink">
    <!-- Generator: Sketch 58 (84663) - https://sketch.com -->
    <title>logo-canadagoose</title>
    <desc>Created with Sketch.</desc>
    <g id="Page-1" stroke="none" stroke-width="1" fill="none" fill-rule="evenodd">
        <g id="about-4a" transform="translate(-878.000000, -3238.000000)" fill="#8E9697" fill-rule="nonzero">
            <g id="Group-5" transform="translate(240.000000, 3007.000000)">
                <g id="svg" transform="translate(25.263158, 0.259259)">
                    <g id="logo-canadagoose" transform="translate(613.650255, 231.407407)">
                        <path d="M10.1521989,8.84585683 C10.0524899,9.31365209 9.88932951,9.76032107 9.6748039,10.1918999 C9.46027823,10.6204607 9.1943873,11.003751 8.87108811,11.3387527 C8.55987486,11.6737544 8.19427486,11.9423595 7.77428809,12.1475857 C7.36336571,12.352812 6.89503513,12.4554252 6.38742518,12.4554252 C5.74989124,12.4554252 5.20300198,12.3648841 4.74373579,12.1838021 C4.28446966,11.9997021 3.9098052,11.6828085 3.61672086,11.2270855 C3.32967953,10.7743804 3.11817536,10.1617195 2.97918698,9.38910293 C2.84926299,8.6527027 2.78581172,7.72616634 2.77976877,6.61854797 C2.78279027,5.76444444 2.81602663,4.97975567 2.87645634,4.25844557 C2.94897207,3.50393719 3.10306796,2.85807793 3.34478699,2.30879579 C3.58650601,1.76856776 3.95210601,1.34302501 4.42950111,1.03518554 C4.90689614,0.730364148 5.55953754,0.57342643 6.38742518,0.57342643 C7.00078721,0.57342643 7.51141861,0.68509363 7.93140543,0.905410133 C8.34534926,1.12572658 8.68979886,1.41243976 8.96777574,1.75649564 C9.24575262,2.10356948 9.47236418,2.48384178 9.65063199,2.89731236 C9.82889974,3.31078299 9.97695263,3.70312741 10.1038551,4.07736356 L10.3244237,4.07736356 L10.3244237,0.476849304 L10.0524899,0.476849304 C10.016232,0.636805096 9.95882373,0.736400237 9.87724355,0.772616652 C9.80170639,0.811851081 9.68386835,0.835995319 9.5237295,0.835995319 C9.37567661,0.835995319 9.1943873,0.799778963 8.97986169,0.730364148 C8.75929308,0.660949393 8.51757406,0.588516563 8.25168313,0.519101807 C7.9857922,0.443650963 7.69875086,0.374236207 7.38149468,0.304821393 C7.07330288,0.238424652 6.73187478,0.199190222 6.36929622,0.199190222 C5.64111771,0.199190222 4.9038747,0.353109926 4.14850272,0.651895289 C3.39615225,0.953698667 2.71027455,1.38225944 2.09389101,1.93757766 C1.48355048,2.49289588 0.978962037,3.16289932 0.586168621,3.94758809 C0.196396708,4.72925884 0,5.60147058 0,6.56422335 C0,7.44850726 0.175246303,8.27544847 0.528760354,9.03599295 C0.879252961,9.79653748 1.34758355,10.4544688 1.93375217,11.0158231 C2.51387784,11.5771774 3.19975554,12.0208283 3.96721347,12.3407399 C4.74373579,12.6666875 5.54140858,12.8296614 6.36929622,12.8296614 C6.73187478,12.8296614 7.08538883,12.796463 7.41170953,12.7361023 C7.73803023,12.6727236 8.04017896,12.6002908 8.32419885,12.530876 C8.59915423,12.4584432 8.8499377,12.3890284 9.06144187,12.3286678 C9.27898898,12.2652891 9.45423528,12.2290727 9.59322372,12.2290727 C9.75034107,12.2290727 9.87120061,12.259253 9.94975928,12.3075415 C10.0252964,12.3588481 10.0947907,12.4554252 10.1521989,12.5912367 L10.4241329,12.5912367 L10.4241329,8.84585683 L10.1521989,8.84585683 Z M55.6467403,0.92955437 L55.6467403,0.476849304 L57.2118714,0.476849304 C57.791997,0.476849304 58.3721227,0.470813274 58.9492269,0.449687052 C59.5293526,0.434596859 60.1094782,0.422524741 60.6865824,0.422524741 C61.1972135,0.422524741 61.7410811,0.458741156 62.3060993,0.522119822 C62.8741395,0.594552652 63.4331147,0.71829203 63.9951113,0.890319941 C64.5480435,1.06838394 65.0798251,1.30379058 65.5783708,1.59653985 C66.073895,1.89532516 66.5240966,2.26956136 66.9078257,2.72226643 C67.2915543,3.1749715 67.5967249,3.71218151 67.826358,4.33691449 C68.0529696,4.96164747 68.1677861,5.69201161 68.1677861,6.53102501 C68.1677861,7.36098424 68.0529696,8.08531236 67.826358,8.71004533 C67.5967249,9.33477831 67.2945758,9.87198833 66.9138681,10.3277114 C66.5331611,10.7804165 66.1010885,11.1576707 65.6116073,11.453438 C65.1221262,11.7461873 64.614516,11.9755578 64.0887774,12.1566398 C63.5569957,12.3316858 63.034278,12.4554252 62.5176039,12.5218219 C62.0039507,12.5912367 61.5235341,12.6244351 61.076354,12.6244351 C60.4327773,12.6244351 59.7892001,12.618399 59.1426019,12.6063269 C58.5020462,12.5942548 57.861491,12.5912367 57.2118714,12.5912367 L55.6467403,12.5912367 L55.6467403,12.1355136 L57.2118714,12.1355136 L57.2118714,0.92955437 L55.6467403,0.92955437 Z M60.6261523,12.2833973 C61.3513096,12.2833973 61.9646712,12.2019103 62.4813459,12.0268644 C62.9919776,11.8548365 63.4180072,11.6224479 63.7715213,11.3296986 C64.1220139,11.0339313 64.3999904,10.6989295 64.608473,10.3186573 C64.8139346,9.94140308 64.9710516,9.54302264 65.0737821,9.12351597 C65.1795347,8.70702732 65.2490287,8.29355668 65.2822652,7.87405001 C65.3185227,7.45454329 65.3336302,7.06521695 65.3336302,6.70003484 C65.3336302,5.8006608 65.2822652,4.9857917 65.1644272,4.25542756 C65.0556537,3.53109944 64.8350851,2.90636646 64.5057424,2.39028273 C64.1764004,1.87419893 63.7141127,1.47581849 63.121901,1.19514133 C62.5236469,0.917482252 61.7441026,0.781670756 60.7742054,0.781670756 C60.5536368,0.781670756 60.3542182,0.781670756 60.1759507,0.787706785 C59.9976826,0.793742874 59.8526516,0.805814993 59.7408566,0.829959289 L59.7408566,12.2351087 C60.0641557,12.2683071 60.3572397,12.2833973 60.6261523,12.2833973 Z M98.376621,7.68994993 L98.376621,8.3056288 L100.132105,8.3056288 L100.132105,8.79153227 C100.132105,9.3166701 100.104912,9.79653748 100.062611,10.2371704 C100.014267,10.6808213 99.9054934,11.0641116 99.7453549,11.3870412 C99.5791728,11.7129889 99.3465182,11.9634857 99.0353052,12.1536218 C98.7361775,12.3407399 98.3161909,12.437317 97.7934738,12.437317 C97.1589611,12.437317 96.6150934,12.3407399 96.1528058,12.1536218 C95.6905182,11.9634857 95.318875,11.6586643 95.0288125,11.2240674 C94.7357279,10.7955067 94.5242238,10.2250983 94.3912783,9.52491443 C94.2492682,8.82171259 94.1827957,7.94950086 94.1827957,6.92035135 L94.1827957,5.72822803 C94.1827957,5.09444095 94.2250968,4.4666899 94.3036553,3.84799301 C94.3791922,3.23231413 94.5514173,2.68001393 94.8082433,2.19712853 C95.0620484,1.71726121 95.4276486,1.3249168 95.9050437,1.02311342 C96.3794174,0.724328119 97.010908,0.57342643 97.7934738,0.57342643 C98.7815001,0.564372326 99.5761513,0.866175704 100.16232,1.48487259 C100.754532,2.10356948 101.195669,2.96672717 101.491775,4.07736356 L101.745579,4.07736356 L101.745579,0.476849304 L101.455517,0.476849304 C101.40113,0.612660859 101.337679,0.706219911 101.274227,0.754508444 C101.204733,0.805814993 101.086895,0.835995319 100.932799,0.835995319 C100.781725,0.835995319 100.600436,0.799778963 100.38591,0.730364148 C100.171384,0.660949393 99.9236224,0.588516563 99.6486674,0.519101807 C99.3797548,0.443650963 99.0866701,0.374236207 98.763371,0.304821393 C98.446115,0.238424652 98.1228159,0.199190222 97.7753448,0.199190222 C97.0501875,0.199190222 96.3099228,0.353109926 95.5545511,0.651895289 C94.7991794,0.953698667 94.1163226,1.38225944 93.4999395,1.93757766 C92.8865773,2.49289588 92.3880316,3.16289932 91.9952386,3.94758809 C91.6054664,4.72925884 91.4090699,5.60147058 91.4090699,6.56422335 C91.4090699,7.44850726 91.5812944,8.27544847 91.93783,9.03599295 C92.2853011,9.79653748 92.7536318,10.4544688 93.3428219,11.0158231 C93.9259691,11.5771774 94.6027823,12.0208283 95.3762836,12.3407399 C96.1467628,12.6666875 96.9504785,12.8296614 97.7753448,12.8296614 C98.3010834,12.8296614 98.745242,12.7723188 99.1168851,12.6666875 C99.4855068,12.5610564 99.8118274,12.4433531 100.098869,12.3196137 C100.376846,12.1958743 100.642737,12.078171 100.887477,11.9665037 C101.132218,11.8578545 101.392065,11.8065479 101.663999,11.8065479 C101.796945,11.8065479 101.920826,11.8397463 102.032621,11.900107 C102.138373,11.9634857 102.198803,12.0660988 102.225996,12.2019103 L102.534188,12.2019103 L102.534188,8.3056288 L103.643074,8.3056288 L103.643074,7.68994993 L98.376621,7.68994993 Z M106.649454,3.94758809 C107.045269,3.16289932 107.543815,2.49289588 108.160198,1.93757766 C108.77356,1.38225944 109.459438,0.953698667 110.217831,0.651895289 C110.979246,0.353109926 111.725554,0.199190222 112.453732,0.199190222 C113.236298,0.199190222 114.006777,0.353109926 114.771213,0.6458592 C115.541693,0.941626548 116.224549,1.36113321 116.816761,1.90437926 C117.415015,2.45064338 117.901475,3.11159277 118.270096,3.88722744 C118.635696,4.66588012 118.820007,5.54110993 118.820007,6.51593481 C118.820007,7.36702033 118.647782,8.17585339 118.300311,8.94243396 C117.955862,9.70599644 117.490553,10.379018 116.904384,10.9584805 C116.321237,11.5349249 115.641402,11.990648 114.879987,12.3286678 C114.109508,12.6606515 113.299749,12.8296614 112.453732,12.8296614 C111.613759,12.8296614 110.804,12.6666875 110.030499,12.3407399 C109.26002,12.0208283 108.577163,11.5771774 107.994016,11.0158231 C107.410869,10.4544688 106.942538,9.79653748 106.592046,9.03599295 C106.23551,8.27544847 106.063286,7.44850726 106.063286,6.56422335 C106.063286,5.60147058 106.259682,4.72925884 106.649454,3.94758809 Z M109.111967,9.44342756 C109.244912,10.203972 109.453395,10.8105968 109.737415,11.2572658 C110.024456,11.7129889 110.390056,12.0238463 110.840258,12.2019103 C111.29046,12.3799743 111.825263,12.4674973 112.453732,12.4674973 C113.269534,12.4674973 113.919154,12.3196137 114.384463,12.0117742 C114.852794,11.7069528 115.206308,11.2814101 115.441983,10.741182 C115.671616,10.203972 115.816648,9.56716693 115.883121,8.82171259 C115.940529,8.08531236 115.973766,7.28553339 115.973766,6.41935775 C115.973766,5.64070501 115.949594,4.89826874 115.898229,4.18903081 C115.846863,3.48582898 115.704853,2.85807793 115.472198,2.32086791 C115.236522,1.78365796 114.883008,1.35509713 114.414678,1.03518554 C113.940305,0.721310044 113.284641,0.561354252 112.453732,0.561354252 C111.668145,0.561354252 111.048741,0.712255941 110.58041,1.00500521 C110.112079,1.30077256 109.758565,1.71424314 109.510803,2.24541707 C109.269084,2.78262708 109.102902,3.41339615 109.030387,4.14979639 C108.951828,4.88016053 108.91557,5.68597553 108.91557,6.56422335 C108.91557,7.72314833 108.976,8.68288302 109.111967,9.44342756 Z M121.895881,3.94758809 C122.288675,3.16289932 122.793264,2.49289588 123.406625,1.93757766 C124.016966,1.38225944 124.702844,0.953698667 125.461237,0.651895289 C126.225674,0.353109926 126.971981,0.199190222 127.697138,0.199190222 C128.479703,0.199190222 129.250183,0.353109926 130.023684,0.6458592 C130.78812,0.941626548 131.467955,1.36113321 132.066209,1.90437926 C132.661443,2.45064338 133.141859,3.11159277 133.516524,3.88722744 C133.882124,4.66588012 134.066434,5.54110993 134.066434,6.51593481 C134.066434,7.36702033 133.897231,8.17585339 133.546738,8.94243396 C133.20531,9.70599644 132.73698,10.379018 132.150811,10.9584805 C131.567664,11.5349249 130.887829,11.990648 130.120371,12.3286678 C129.355935,12.6606515 128.546176,12.8296614 127.697138,12.8296614 C126.857164,12.8296614 126.047406,12.6666875 125.276926,12.3407399 C124.506447,12.0208283 123.823591,11.5771774 123.243465,11.0158231 C122.660318,10.4544688 122.188966,9.79653748 121.838473,9.03599295 C121.484959,8.27544847 121.306692,7.44850726 121.306692,6.56422335 C121.306692,5.60147058 121.503088,4.72925884 121.895881,3.94758809 Z M124.355373,9.44342756 C124.494361,10.203972 124.699822,10.8105968 124.986864,11.2572658 C125.267862,11.7129889 125.633462,12.0238463 126.080642,12.2019103 C126.536887,12.3799743 127.077733,12.4674973 127.697138,12.4674973 C128.518983,12.4674973 129.168602,12.3196137 129.627869,12.0117742 C130.099221,11.7069528 130.449713,11.2814101 130.685389,10.741182 C130.918044,10.203972 131.066097,9.56716693 131.126527,8.82171259 C131.186957,8.08531236 131.217172,7.28553339 131.217172,6.41935775 C131.217172,5.64070501 131.193,4.89826874 131.141634,4.18903081 C131.090269,3.48582898 130.951281,2.85807793 130.718626,2.32086791 C130.48295,1.78365796 130.129436,1.35509713 129.658084,1.03518554 C129.186731,0.721310044 128.531069,0.561354252 127.697138,0.561354252 C126.917594,0.561354252 126.295168,0.712255941 125.826837,1.00500521 C125.358506,1.30077256 125.004993,1.71424314 124.760252,2.24541707 C124.515512,2.78262708 124.34933,3.41339615 124.276814,4.14979639 C124.192213,4.88016053 124.158976,5.68597553 124.158976,6.56422335 C124.158976,7.72314833 124.222427,8.68288302 124.355373,9.44342756 Z M145.007242,7.28251538 C144.795738,6.89620705 144.520782,6.56422335 144.179354,6.29561837 C143.837926,6.02399532 143.451175,5.8006608 143.010038,5.62259686 C142.571922,5.44453286 142.124742,5.28759508 141.665476,5.13971141 C141.20621,4.99182779 140.756008,4.84998021 140.317893,4.71416865 C139.882798,4.57232107 139.496048,4.41538335 139.15462,4.22826524 C138.81017,4.04114714 138.538236,3.81479461 138.323711,3.55222572 C138.130336,3.3047469 138.027605,2.99992551 138.015519,2.62870738 C138.027605,2.39330074 138.085013,2.1578941 138.19983,1.93154157 C138.320689,1.67802673 138.505,1.45469227 138.743697,1.24946596 C138.985416,1.04725772 139.278501,0.884283911 139.622951,0.757526459 C139.970422,0.633787081 140.369258,0.570408356 140.822481,0.570408356 C141.378435,0.570408356 141.837701,0.666985481 142.206322,0.860139615 C142.568901,1.05329375 142.865007,1.30680859 143.103705,1.61464806 C143.33938,1.92550554 143.54182,2.28163348 143.695916,2.66190572 C143.843969,3.05123212 143.989,3.44055846 144.127989,3.83592089 L144.348557,3.83592089 L144.348557,0.476849304 L144.079645,0.476849304 C144.022237,0.612660859 143.96785,0.706219911 143.916484,0.754508444 C143.862098,0.805814993 143.756346,0.835995319 143.599228,0.835995319 C143.463261,0.835995319 143.315209,0.799778963 143.149027,0.730364148 C142.982845,0.660949393 142.792491,0.588516563 142.577965,0.519101807 C142.360418,0.443650963 142.106613,0.374236207 141.828637,0.304821393 C141.541595,0.238424652 141.212253,0.199190222 140.84061,0.199190222 C140.248398,0.199190222 139.698488,0.304821393 139.193899,0.5009936 C138.686289,0.700183822 138.26026,0.959734696 137.89466,1.28266436 C137.532081,1.60861197 137.245039,1.9798301 137.039578,2.39933683 C136.834117,2.8188435 136.734408,3.25344036 136.734408,3.70614542 C136.734408,4.31880628 136.831096,4.831872 137.033535,5.23930655 C137.229932,5.6467411 137.495823,5.99381499 137.825165,6.26845606 C138.154507,6.54913316 138.532193,6.77246767 138.949159,6.94751366 C139.369146,7.1255776 139.801218,7.27949736 140.245377,7.40927277 C140.683493,7.53904824 141.118587,7.6688237 141.538574,7.79256308 C141.955539,7.91630246 142.333225,8.06720415 142.665588,8.25130418 C142.991909,8.43540427 143.254779,8.65873879 143.454197,8.93639787 C143.644551,9.18991271 143.738217,9.5188784 143.747281,9.90820474 C143.738217,10.113431 143.698937,10.3488376 143.614336,10.6144246 C143.52067,10.919246 143.366574,11.2059592 143.149027,11.4745642 C142.93148,11.7522233 142.623288,11.9755578 142.233516,12.1656939 C141.849787,12.352812 141.354263,12.4493891 140.752987,12.4493891 C140.586805,12.4493891 140.402494,12.4463711 140.203076,12.440335 C140.003658,12.437317 139.792154,12.4011006 139.568564,12.3377219 C139.351016,12.2743432 139.118362,12.174748 138.8706,12.0389365 C138.628881,11.903125 138.375076,11.7069528 138.112207,11.4413659 C137.879552,11.2150133 137.674091,10.9675346 137.513952,10.7049656 C137.341727,10.4363607 137.208782,10.1768097 137.100008,9.92329487 C136.991235,9.66676201 136.906633,9.42833736 136.852246,9.20500284 C136.794838,8.9846864 136.755559,8.8066224 136.734408,8.6708109 L136.477582,8.6708109 L136.477582,12.5912367 L136.752537,12.5912367 C136.806924,12.4312809 136.870375,12.3286678 136.936848,12.2773612 C137.006342,12.2230366 137.118137,12.2019103 137.281297,12.2019103 C137.396114,12.2019103 137.565318,12.2290727 137.800994,12.3015055 C138.033648,12.3648841 138.299539,12.440335 138.595645,12.5127678 C138.900815,12.5882187 139.224114,12.6576334 139.568564,12.7240302 C139.916035,12.796463 140.266527,12.8296614 140.620041,12.8296614 C141.321027,12.8296614 141.95856,12.7179941 142.532643,12.4976776 C143.103705,12.2773612 143.60225,11.9755578 144.016194,11.6013217 C144.430137,11.2270855 144.753437,10.7924886 144.977027,10.2945131 C145.20666,9.79653748 145.318455,9.26536356 145.318455,8.71004533 C145.318455,8.14567301 145.212703,7.6688237 145.007242,7.28251538 Z M52.2838243,12.1324956 L47.0143498,0 L46.3345151,0 L41.3490601,12.1324956 L40.0407563,12.1324956 L40.0407563,12.5882187 L43.2737483,12.5882187 L43.2737483,12.1324956 L41.8385413,12.1324956 L43.6302833,7.80765327 L47.7304425,7.80765327 L49.6098081,12.1324956 L48.1202147,12.1324956 L48.1202147,12.5882187 L53.8429124,12.5882187 L53.8429124,12.1324956 L52.2838243,12.1324956 Z M47.5491529,7.35193013 L43.8085514,7.35193013 L45.6305084,2.90636646 L47.5491529,7.35193013 Z M81.568084,12.1355136 L76.2895449,0 L75.6157532,0 L70.6302983,12.1355136 L69.3189729,12.1355136 L69.3189729,12.5912367 L72.5580079,12.5912367 L72.5580079,12.1355136 L71.1197794,12.1355136 L72.9115214,7.80765327 L77.0116807,7.80765327 L78.190061,10.5148295 L78.8880247,12.1355136 L77.3984313,12.1355136 L77.3984313,12.5912367 L83.127172,12.5912367 L83.127172,12.1355136 L81.568084,12.1355136 Z M76.8364341,7.35193013 L73.0897895,7.35193013 L74.9117465,2.90636646 L76.8364341,7.35193013 Z M24.4740512,12.1324956 L19.1985333,0 L18.5277631,0 L13.5392867,12.1324956 L12.2340041,12.1324956 L12.2340041,12.5882187 L15.4669959,12.5882187 L15.4669959,12.1324956 L14.0317893,12.1324956 L15.8235315,7.80765327 L19.9236905,7.80765327 L21.7970129,12.1324956 L20.3104409,12.1324956 L20.3104409,12.5882187 L26.0361601,12.5882187 L26.0361601,12.1324956 L24.4740512,12.1324956 Z M19.7454227,7.35193013 L15.9987778,7.35193013 L17.8207349,2.90636646 L19.7454227,7.35193013 Z M39.4394801,0.476849304 L36.0161346,0.476849304 L36.0161346,0.92955437 L37.5993941,0.92955437 L37.5993941,8.57423384 L37.5661575,8.57423384 L31.8948249,0.476849304 L27.8671817,0.476849304 L27.8671817,0.92955437 L29.2238296,0.92955437 L29.2238296,12.1324956 L27.8671817,12.1324956 L27.8671817,12.5882187 L27.8762462,12.5882187 L27.8762462,12.5912367 L31.2814632,12.5912367 L31.2814632,12.1324956 L29.7133107,12.1324956 L29.7133107,1.68406281 L29.7465473,1.68406281 L37.415083,12.5912367 L38.0888752,12.5912367 L38.0888752,0.92955437 L39.4304156,0.92955437 L39.4304156,0.712255941 L39.4394801,0.712255941 L39.4394801,0.476849304 Z M157.458793,0.476849304 L157.458793,3.60051425 L157.238224,3.60051425 C157.180816,3.40736006 157.081107,3.1598813 156.948161,2.85807793 C156.809173,2.55929262 156.621841,2.26956136 156.374078,1.98586619 C156.132359,1.70217102 155.815103,1.45469227 155.428353,1.24342987 C155.044624,1.03518554 154.57025,0.92955437 154.02034,0.92955437 L151.310065,0.92955437 L151.310065,5.9696707 L152.264855,5.9696707 C152.68182,5.9696707 153.038356,5.91232806 153.328419,5.79462477 C153.61546,5.67390341 153.860201,5.50489351 154.047533,5.28155899 C154.24393,5.05822453 154.404068,4.79565559 154.530971,4.48178009 C154.65183,4.17092261 154.754561,3.8208307 154.83312,3.43452237 L155.05671,3.43452237 L155.05671,8.94545197 L154.83312,8.94545197 C154.754561,8.61346827 154.660895,8.29959277 154.552121,7.9917533 C154.443348,7.68391384 154.298316,7.41530886 154.120049,7.1829203 C153.935738,6.94751366 153.712148,6.76643159 153.443236,6.63062009 C153.177345,6.49480859 152.844981,6.42841185 152.449166,6.42841185 L151.310065,6.42841185 L151.310065,12.1355136 L154.10192,12.1355136 C154.624638,12.1355136 155.095989,12.0479906 155.515976,11.8699266 C155.935963,11.6948807 156.310627,11.453438 156.630905,11.1305084 C156.954204,10.8166329 157.223117,10.4454147 157.440664,10.0168539 C157.658211,9.59432919 157.821371,9.13558809 157.936188,8.64968468 L158.156757,8.64968468 L158.156757,12.5912367 L147.270336,12.5912367 L147.270336,12.1355136 L148.84151,12.1355136 L148.84151,0.92955437 L147.270336,0.92955437 L147.270336,0.476849304 L157.458793,0.476849304 Z" id="CG-Wordmark"></path>
                    </g>
                </g>
            </g>
        </g>
    </g>
</svg>