<?xml version="1.0" encoding="UTF-8"?>
<svg width="127px" height="23px" viewBox="0 0 127 23" version="1.1" xmlns="http://www.w3.org/2000/svg" xmlns:xlink="http://www.w3.org/1999/xlink">
    <!-- Generator: Sketch 58 (84663) - https://sketch.com -->
    <title>logo-monday</title>
    <desc>Created with Sketch.</desc>
    <g id="Page-1" stroke="none" stroke-width="1" fill="none" fill-rule="evenodd">
        <g id="about-4a" transform="translate(-900.000000, -3008.000000)" fill="#8E9697" fill-rule="nonzero">
            <g id="Group-5" transform="translate(240.000000, 3007.000000)">
                <g id="svg" transform="translate(25.263158, 0.259259)">
                    <g id="logo-monday" transform="translate(635.653650, 0.814815)">
                        <g id="Group" transform="translate(0.000000, 5.703704)">
                            <path d="M2.60588479,12.5253594 C1.66314523,12.5273907 0.792224703,12.0233673 0.326232905,11.2060419 C-0.133041695,10.3937462 -0.10550087,9.39501347 0.397845006,8.60912077 L5.09241608,1.25679871 C5.5815898,0.452331213 6.46692752,-0.027426477 7.40986324,0.00099194847 C8.35211259,0.0235115674 9.20917186,0.550394705 9.65271446,1.37980032 C10.090344,2.20510145 10.0356403,3.19804187 9.51147949,3.97275362 L4.81989225,11.3250757 C4.33635449,12.0765432 3.50116882,12.529314 2.60588479,12.5253594 L2.60588479,12.5253594 Z" id="Path"></path>
                            <path d="M10.6582677,12.5253422 C9.7113966,12.5253422 8.84011604,12.0204316 8.38259428,11.2090177 C7.92433821,10.398925 7.9518831,9.40271534 8.45420638,8.61904026 L13.1398259,1.28358132 C13.6219375,0.467569241 14.5099004,-0.023451713 15.4592623,0.00099194847 C16.4140903,0.0218228663 17.2794032,0.554499195 17.7170327,1.38773591 C18.1516784,2.22097262 18.0880232,3.21986473 17.5479486,3.99259259 L12.8633237,11.3280515 C12.3813157,12.0762644 11.5499851,12.527653 10.6582677,12.5253422 Z" id="Path"></path>
                            <ellipse id="Oval" cx="18.5306258" cy="10.2269887" rx="2.41690841" ry="2.35984541"></ellipse>
                        </g>
                        <path d="M123.322228,13.2693627 C124.059144,13.2693627 124.499888,13.8195497 124.499888,14.720718 L124.499888,17.8089321 L125.500849,17.8089321 L125.500849,14.6501001 C125.500849,13.117587 124.813128,12.2290667 123.520011,12.2290667 C123.014009,12.2290667 122.210831,12.3745184 121.731936,13.3515746 C121.50523,12.7644118 120.989588,12.355475 120.389624,12.2870366 C120.20427,12.2514029 120.015458,12.2397221 119.8274,12.2522547 C119.415771,12.2870366 118.682871,12.5558061 118.408787,13.1650169 L118.408787,12.3460605 L117.406822,12.3460605 L117.406822,17.8089321 L118.408787,17.8089321 L118.408787,14.8608997 C118.408787,13.7141499 119.123615,13.2693627 119.839447,13.2693627 C120.510101,13.2693627 120.950845,13.8079557 120.950845,14.709124 L120.950845,17.8089321 L121.946786,17.8089321 L121.946786,14.8608997 C121.946786,13.9481375 122.468852,13.2588228 123.322228,13.2693627 L123.322228,13.2693627 Z M113.72927,16.8961699 C114.187082,16.9067099 114.62883,16.7148822 114.949097,16.3670629 C115.270368,16.0192435 115.441044,15.5459984 115.423976,15.0601054 C115.423976,13.9597314 114.652925,13.2693627 113.72927,13.2693627 C112.804612,13.2693627 112.034565,13.9597314 112.034565,15.0601054 C112.016493,15.5449444 112.187168,16.0171355 112.506432,16.3639009 C112.825695,16.7117202 113.265435,16.9046019 113.721239,16.8961699 L113.72927,16.8961699 L113.72927,16.8961699 Z M113.72927,17.9206559 C112.265478,17.9206559 111.043644,16.7855001 111.043644,15.0537814 C111.043644,13.3220626 112.265478,12.2227427 113.72927,12.2227427 C115.193062,12.2227427 116.424937,13.3220626 116.424937,15.0537814 C116.424937,16.7855001 115.186035,17.9259259 113.722242,17.9259259 L113.72927,17.9206559 Z M105.888244,15.0537814 L105.878205,15.0601054 C105.878205,13.3283866 107.132166,12.2290667 108.605998,12.2227427 C109.354745,12.2075344 110.07455,12.5261957 110.586836,13.0996691 L109.827833,13.7784438 C109.502205,13.4427673 109.062322,13.2575913 108.605998,13.2640928 C107.682343,13.2640928 106.879165,13.9544615 106.879165,15.0537814 C106.879165,15.79685 107.29983,16.4661387 107.945384,16.7507182 C108.590939,17.0352976 109.333878,16.8771979 109.827833,16.3523069 L110.59788,17.0310816 C110.083949,17.6104692 109.36002,17.9337756 108.605998,17.9206559 C107.14321,17.9206559 105.888244,16.7855001 105.888244,15.0537814 L105.888244,15.0537814 Z M102.68256,16.7602041 C102.680417,16.5673193 102.751355,16.3814424 102.879766,16.2434708 C103.008176,16.1054992 103.183539,16.0267369 103.367269,16.0245135 C103.550999,16.0267369 103.726362,16.1054992 103.854772,16.2434708 C103.983183,16.3814424 104.054121,16.5673193 104.051979,16.7602041 C104.033423,17.144146 103.733439,17.4466095 103.367269,17.4505728 C103.001099,17.4466095 102.701115,17.144146 102.68256,16.7602041 L102.68256,16.7602041 Z" id="Shape"></path>
                        <path d="M105.942275,6.10643478 L102.41744,6.10643478 L99.946779,12.4717681 L97.4890227,6.10643478 L93.9641871,6.10643478 L98.2493786,16.1647923 L95.5841622,22.8148148 L99.0831893,22.8148148 L105.942275,6.10643478 Z M84.5053987,11.7010242 C84.5053987,13.3079807 85.9109654,14.3653977 87.2917162,14.3653977 C88.6486439,14.3653977 89.9817484,13.3813849 89.9817484,11.7000322 C89.9817484,10.0186795 88.6486439,9.03367472 87.2917162,9.03367472 C85.9109654,9.03367472 84.5053987,10.0920837 84.5053987,11.7000322 L84.5053987,11.7010242 Z M89.9817484,17.3174364 L89.9817484,16.0447665 C89.2670535,17.1259903 87.599432,17.5346731 86.7437834,17.5346731 C83.9108123,17.5346731 81.0768485,15.302789 81.0768485,11.7000322 C81.0768485,8.09826731 83.9098197,5.86638325 86.7437834,5.86638325 C87.4574857,5.86638325 89.1251071,6.10445089 89.9817484,7.35430596 L89.9817484,6.11040258 L93.2673596,6.11040258 L93.2673596,17.3194203 L89.9817484,17.3184283 L89.9817484,17.3174364 Z M80.1417893,17.3174364 L76.8561781,17.3174364 L76.8561781,15.9247407 C76.3072527,16.9563671 74.9761335,17.5574879 73.59439,17.5574879 C70.7366031,17.5574879 68.2123404,15.2769984 68.2123404,11.7456618 C68.2123404,8.14786473 70.7366031,5.86439936 73.59439,5.86439936 C74.9741482,5.86439936 76.309238,6.43972947 76.8561781,7.47234783 L76.8561781,2.0783375e-13 L80.1417893,2.0783375e-13 L80.1417893,17.3174364 Z M76.7847086,11.6752335 C76.7847086,9.99487279 75.5707199,9.00986795 74.2137923,9.00986795 C72.8082256,9.00986795 71.6408906,10.0662931 71.6408906,11.6752335 C71.6408906,13.3357552 72.8082256,14.3872233 74.2127996,14.3872233 C75.5955357,14.3892045 76.7847086,13.2841739 76.7847086,11.6752335 L76.7847086,11.6752335 Z M60.0886418,11.3855845 C60.0886418,9.68141707 60.9700988,9.10509501 62.1364412,9.10509501 C63.2551372,9.10509501 64.0651247,9.84905636 64.0651247,11.3369791 L64.0651247,17.3154525 L67.3745592,17.3154525 L67.3745592,10.6178164 C67.3745592,7.42572625 65.8022304,5.86439936 63.3017909,5.86439936 C61.9925096,5.86439936 60.6832282,6.60836071 60.0876491,7.73719807 L60.0876491,6.10643478 L56.7802,6.10643478 L56.7802,17.3154525 L60.0886418,17.3154525 L60.0886418,11.3855845 L60.0886418,11.3855845 Z M50.0600827,17.5078905 C46.9174104,17.5078905 44.2958699,15.2035942 44.2958699,11.6742415 C44.2958699,8.14290499 46.9144325,5.86142351 50.0600827,5.86142351 C53.2057329,5.86142351 55.8471261,8.14290499 55.8471261,11.6742415 C55.8471261,15.2055781 53.202755,17.5088824 50.0600827,17.5088824 L50.0600827,17.5078905 L50.0600827,17.5078905 Z M50.0600827,14.24438 C51.4398409,14.24438 52.5843454,13.2345765 52.5843454,11.6752335 C52.5843454,10.1625121 51.4408335,9.12989372 50.0600827,9.12989372 C49.3881984,9.11938808 48.7414912,9.38513736 48.2713602,9.86492754 C47.7986091,10.3471623 47.5417957,11.0003867 47.5596432,11.6752335 C47.5606358,13.2365604 48.703155,14.24438 50.0600827,14.24438 L50.0600827,14.24438 Z M38.3629096,9.10608696 C39.3386667,9.10608696 40.1963005,9.87484702 40.1963005,11.337971 L40.1963005,17.3174364 L43.4819118,17.3174364 L43.4819118,10.9511111 C43.4819118,7.56658293 41.8351356,5.86241546 39.1957277,5.86241546 C38.4115486,5.86241546 36.9345124,6.10048309 35.8624701,7.85424799 C35.2430679,6.55777134 34.0529023,5.88523027 32.2939588,5.88523027 C31.0466926,5.87889025 29.9109229,6.60193102 29.3895182,7.73422222 L29.3895182,6.10742673 L26.0780985,6.10742673 L26.0780985,17.3164444 L29.3865403,17.3164444 L29.3865403,11.3855845 C29.3865403,9.68141707 30.3156436,9.10509501 31.3152238,9.10509501 C32.2681504,9.10509501 33.123799,9.84905636 33.1486148,11.2655588 L33.1486148,17.3164444 L36.4580492,17.3164444 L36.4580492,11.3855845 C36.4580492,9.7558132 37.3156831,9.1070789 38.3629096,9.1070789 L38.3629096,9.10608696 Z" id="Shape"></path>
                    </g>
                </g>
            </g>
        </g>
    </g>
</svg>