<svg width="201" height="38" viewBox="0 0 201 38" fill="none" xmlns="http://www.w3.org/2000/svg">
<g clip-path="url(#clip0)">
<path d="M163.855 26.0899V26.0095C163.855 19.8991 168.559 14.7937 175.071 14.7937C181.543 14.7937 186.247 19.8187 186.247 25.9291V26.0095C186.247 32.1199 181.543 37.2253 175.031 37.2253C168.519 37.2253 163.855 32.2003 163.855 26.0899V26.0899ZM180.619 26.1301V26.0497C180.619 23.0347 178.247 20.4619 174.991 20.4619C171.614 20.4619 169.443 22.9945 169.443 25.9693V26.0497C169.443 29.0647 171.815 31.6375 175.071 31.6375C178.488 31.6375 180.619 29.1049 180.619 26.1301ZM178.046 26.0899V26.0497C178.046 24.4015 176.76 23.0347 174.991 23.0347C173.182 23.0347 172.016 24.4015 172.016 26.0095V26.0497C172.016 27.6979 173.302 29.0647 175.071 29.0647C176.92 29.0245 178.046 27.6979 178.046 26.0899Z" fill="#8F9697"/>
<path d="M130.853 16.4822H137.727V19.1756C138.973 17.5274 140.782 16.04 143.556 16.04C146.169 16.04 148.139 17.2058 149.184 19.2158C150.872 17.246 152.882 16.04 155.736 16.04C159.877 16.04 162.41 18.653 162.41 23.1956V36.0596H155.535V25.4468C155.535 23.3162 154.49 22.1906 152.842 22.1906C151.194 22.1906 150.028 23.3162 150.028 25.4468V36.0998H143.154V25.4468C143.154 23.3162 142.109 22.1906 140.46 22.1906C138.852 22.1906 137.687 23.3162 137.687 25.4468V36.0998H130.812V16.4822H130.853Z" fill="#8F9697"/>
<path d="M109.426 29.306V16.4822H116.3V27.095C116.3 29.2256 117.426 30.3914 119.074 30.3914C120.682 30.3914 121.928 29.2256 121.928 27.095V16.4822H128.802V36.0998H121.928V33.4064C120.682 35.0546 118.873 36.542 116.059 36.542C111.918 36.542 109.426 33.7682 109.426 29.306V29.306Z" fill="#8F9697"/>
<path d="M85.7891 32.3209L89.6885 27.6577C92.1809 29.6677 94.9547 30.7129 97.8893 30.7129C99.7787 30.7129 100.784 30.0697 100.784 28.9843V28.9039C100.784 27.8587 99.9395 27.2557 96.5225 26.4919C91.1357 25.2457 86.9549 23.7181 86.9549 18.5323V18.4519C86.9549 13.7485 90.6935 10.3315 96.7637 10.3315C101.065 10.3315 104.442 11.4973 107.175 13.7083L103.678 18.6529C101.346 17.0047 98.8139 16.1605 96.6029 16.1605C94.9145 16.1605 94.0703 16.8841 94.0703 17.8087V17.8891C94.0703 19.0549 94.9547 19.5373 98.4521 20.3413C104.281 21.6277 107.899 23.4769 107.899 28.2607V28.3411C107.899 33.5269 103.799 36.6223 97.6481 36.6223C93.1457 36.5419 88.8845 35.0947 85.7891 32.3209V32.3209Z" fill="#8F9697"/>
<path d="M65.8058 30.9542L75.6548 21.668H65.8058V16.4822H83.9762V21.6278L74.0468 30.9542H83.936V36.0998H65.7656V30.9542H65.8058Z" fill="#8F9697"/>
<path d="M45.6261 30.9542L55.4751 21.6278H45.6261V16.4822H63.7965V21.6278L53.8671 30.9542H63.7563V36.0998H45.5859V30.9542H45.6261Z" fill="#8F9697"/>
<path d="M24.1992 29.306V16.4822H31.0734V27.095C31.0734 29.2256 32.199 30.3914 33.8472 30.3914C35.4552 30.3914 36.7014 29.2256 36.7014 27.095V16.4822H43.5756V36.0998H36.7014V33.4064C35.4552 35.0546 33.6462 36.542 30.8322 36.542C26.6916 36.542 24.1992 33.7682 24.1992 29.306V29.306Z" fill="#8F9697"/>
<path d="M0 10.7336H12.9846C16.1604 10.7336 18.4116 11.5376 19.899 13.025C20.904 14.03 21.507 15.3968 21.507 17.1254V17.2058C21.507 20.1404 19.8588 21.869 17.6076 22.874C20.6628 23.879 22.6326 25.6478 22.6326 29.0648V29.1452C22.6326 33.4868 19.095 36.14 13.065 36.14H0V10.7336ZM11.256 20.8238C13.3866 20.8238 14.5926 20.1002 14.5926 18.6128V18.5324C14.5926 17.1656 13.5072 16.3616 11.4168 16.3616H6.834V20.8238H11.256ZM12.261 30.4316C14.3916 30.4316 15.6378 29.5874 15.6378 28.1V28.0196C15.6378 26.6528 14.5524 25.7282 12.2208 25.7282H6.834V30.3914H12.261V30.4316Z" fill="#8F9697"/>
<path d="M177.722 7.437C184.958 7.437 193.561 13.8288 193.561 23.1954C193.561 24.6426 192.395 25.7682 190.988 25.7682H190.948C189.983 25.7682 189.179 25.0044 189.099 24.0798C188.295 17.7282 183.471 12.663 176.798 11.8992C175.833 11.7786 175.109 10.9746 175.109 10.0098V9.9696C175.15 8.5626 176.315 7.437 177.722 7.437V7.437ZM177.883 0C176.476 0 175.31 1.1658 175.31 2.5728V2.613C175.31 3.5376 176.074 4.3014 177.039 4.3818C187.893 5.2662 195.732 13.5876 196.657 23.8788C196.737 24.8034 197.501 25.5672 198.425 25.5672H198.466C199.873 25.5672 201.038 24.4014 201.038 22.9944C200.998 9.3666 188.737 0 177.883 0Z" fill="#8F9697"/>
</g>
<defs>
<clipPath id="clip0">
<rect width="201" height="37.2252" fill="white"/>
</clipPath>
</defs>
</svg>
