<svg width="116" height="75" viewBox="0 0 116 75" fill="none" xmlns="http://www.w3.org/2000/svg">
<path d="M27.7828 4.99437C58.4197 -6.98663 92.8176 6.49182 108.604 16.6509C124.39 26.8099 109.842 74.8974 88.569 73.9943C79.1079 73.5927 64.4747 69.9686 48.1271 66.3672C36.935 63.9016 24.9393 61.4466 13.2496 60.0436C-11.8822 57.0272 2.56874 14.8547 27.7828 4.99437Z" fill="#00D1FF"/>
<path d="M79.1923 25.8949C79.5154 26.3786 79.475 26.943 79.3135 27.5073C79.1115 28.3539 78.7481 29.1198 78.3038 29.8454C77.5365 31.0951 76.6885 32.3045 75.8404 33.5138C75.1942 34.4813 74.5885 35.4488 73.9827 36.4163C74.6692 36.6582 75.3558 37.021 76.0019 37.3838C77.8596 38.5529 79.2731 40.3669 79.7577 42.5034C80.0404 43.7531 80.0808 45.1237 79.8385 46.3734C79.6769 47.3006 79.4346 48.0665 79.1115 48.9534C78.7885 49.7999 78.2231 50.6465 77.6981 51.3721C76.5269 52.904 74.8308 54.073 73.0135 54.6374C71.7211 55.0405 70.3885 55.0405 69.0558 54.9196C68.2481 54.8389 67.4404 54.5971 66.6731 54.3149C65.3404 53.8715 64.1288 53.0652 63.1596 52.0977C61.5442 50.4852 60.6961 48.2278 60.575 45.9703C60.4942 44.4384 60.8173 42.8663 61.4231 41.4553C61.7865 40.5685 62.3115 39.7622 62.7961 38.956C63.8865 37.2629 65.2192 35.6907 66.5519 34.1992C67.8442 32.7479 69.2981 31.4176 70.7923 30.1276C72.0442 29.0795 73.3769 28.1523 74.75 27.2252L74.7096 27.2655C74.75 27.2252 74.7904 27.2252 74.8308 27.1849C74.8711 27.1445 74.9115 27.1445 74.9519 27.1042L74.9115 27.1445C75.7192 26.6205 76.4865 26.1367 77.375 25.7739C77.6577 25.653 78.0615 25.5321 78.425 25.5321C78.7077 25.5321 78.9904 25.6127 79.1923 25.8949Z" fill="white"/>
<path d="M53.6577 24.0405C54.2231 24.1211 55.2731 24.4033 54.9904 25.1693V25.1289C54.95 25.2096 54.95 25.2499 54.9097 25.2902C54.9097 25.2499 54.95 25.2499 54.95 25.2096C54.6673 25.7739 54.1827 26.298 53.7789 26.822C53.2135 27.6283 52.6481 28.4345 52.0827 29.2408C51.2347 30.4501 50.3058 31.6192 49.4577 32.8285C51.0327 33.6348 52.3654 34.9248 53.2135 36.4969C53.9404 37.8272 54.3847 39.3188 54.3847 40.8507C54.3847 41.415 54.3443 41.9794 54.2635 42.5438C54.102 43.5919 53.7385 44.5594 53.2539 45.5269C52.2039 47.6231 50.2654 49.1549 48.1654 50.0821C47.075 50.5659 45.7423 50.8077 44.5712 50.8077C44.0462 50.8077 43.5616 50.7674 43.0366 50.6868C42.2693 50.6062 41.5424 50.324 40.8154 50.0821C40.4116 49.9209 39.9674 49.679 39.6039 49.4371C39.0789 49.0743 38.5539 48.7115 38.1097 48.2681C37.5443 47.7037 37.1 47.099 36.6558 46.454C36.2924 45.93 36.0097 45.285 35.8077 44.6803C35.202 43.1484 34.9597 41.536 35.1212 39.8832C35.202 38.7141 35.5654 37.6257 36.0097 36.5776C36.9385 34.2798 38.5943 32.3045 40.2904 30.5308C41.3404 29.402 42.552 28.3942 43.8443 27.5477C44.9347 26.822 45.9847 26.1771 47.1558 25.653C48.2462 25.1289 49.377 24.7258 50.5481 24.4033C51.3558 24.2018 52.2039 24.0002 53.052 24.0002C53.2135 24.0002 53.4154 24.0405 53.6577 24.0405Z" fill="white"/>
<path d="M77.1923 23.8949C77.5154 24.3786 77.475 24.943 77.3135 25.5073C77.1115 26.3539 76.7481 27.1198 76.3038 27.8454C75.5365 29.0951 74.6885 30.3045 73.8404 31.5138C73.1942 32.4813 72.5885 33.4488 71.9827 34.4163C72.6692 34.6582 73.3558 35.021 74.0019 35.3838C75.8596 36.5529 77.2731 38.3669 77.7577 40.5034C78.0404 41.7531 78.0808 43.1237 77.8385 44.3734C77.6769 45.3006 77.4346 46.0665 77.1115 46.9534C76.7885 47.7999 76.2231 48.6465 75.6981 49.3721C74.5269 50.904 72.8308 52.073 71.0135 52.6374C69.7211 53.0405 68.3885 53.0405 67.0558 52.9196C66.2481 52.8389 65.4404 52.5971 64.6731 52.3149C63.3404 51.8715 62.1288 51.0652 61.1596 50.0977C59.5442 48.4852 58.6961 46.2278 58.575 43.9703C58.4942 42.4384 58.8173 40.8663 59.4231 39.4553C59.7865 38.5685 60.3115 37.7622 60.7961 36.956C61.8865 35.2629 63.2192 33.6907 64.5519 32.1992C65.8442 30.7479 67.2981 29.4176 68.7923 28.1276C70.0442 27.0795 71.3769 26.1523 72.75 25.2252L72.7096 25.2655C72.75 25.2252 72.7904 25.2252 72.8308 25.1849C72.8711 25.1445 72.9115 25.1445 72.9519 25.1042L72.9115 25.1445C73.7192 24.6205 74.4865 24.1367 75.375 23.7739C75.6577 23.653 76.0615 23.5321 76.425 23.5321C76.7077 23.5321 76.9904 23.6127 77.1923 23.8949Z" fill="#16113A"/>
<path d="M51.6577 22.0405C52.2231 22.1211 53.2731 22.4033 52.9904 23.1693V23.1289C52.95 23.2096 52.95 23.2499 52.9097 23.2902C52.9097 23.2499 52.95 23.2499 52.95 23.2096C52.6673 23.7739 52.1827 24.298 51.7789 24.822C51.2135 25.6283 50.6481 26.4345 50.0827 27.2408C49.2347 28.4501 48.3058 29.6192 47.4577 30.8285C49.0327 31.6348 50.3654 32.9248 51.2135 34.4969C51.9404 35.8272 52.3847 37.3188 52.3847 38.8507C52.3847 39.415 52.3443 39.9794 52.2635 40.5438C52.102 41.5919 51.7385 42.5594 51.2539 43.5269C50.2039 45.6231 48.2654 47.1549 46.1654 48.0821C45.075 48.5659 43.7423 48.8077 42.5712 48.8077C42.0462 48.8077 41.5616 48.7674 41.0366 48.6868C40.2693 48.6062 39.5424 48.324 38.8154 48.0821C38.4116 47.9209 37.9674 47.679 37.6039 47.4371C37.0789 47.0743 36.5539 46.7115 36.1097 46.2681C35.5443 45.7037 35.1 45.099 34.6558 44.454C34.2924 43.93 34.0097 43.285 33.8077 42.6803C33.202 41.1484 32.9597 39.536 33.1212 37.8832C33.202 36.7141 33.5654 35.6257 34.0097 34.5776C34.9385 32.2798 36.5943 30.3045 38.2904 28.5308C39.3404 27.402 40.552 26.3942 41.8443 25.5477C42.9347 24.822 43.9847 24.1771 45.1558 23.653C46.2462 23.1289 47.377 22.7258 48.5481 22.4033C49.3558 22.2018 50.2039 22.0002 51.052 22.0002C51.2135 22.0002 51.4154 22.0405 51.6577 22.0405Z" fill="#16113A"/>
</svg>
