<svg width="63" height="50" viewBox="0 0 63 50" fill="none" xmlns="http://www.w3.org/2000/svg">
<path d="M30.1224 0.639361C53.3318 2.38196 65 13.9099 62.0091 32.2116C59.0182 50.5134 35.2039 52.0631 21.9715 47.0075C14.3531 44.0967 -0.0238963 32.369 0.354745 23.8732C0.982415 9.78976 12.6961 -0.66904 30.1224 0.639361Z" fill="#00D1FF"/>
<path d="M49.972 16.9557L34.2501 12.138C33.1039 11.788 31.8967 11.788 30.7499 12.138L15.028 16.9557C13.8153 17.3274 13 18.4003 13 19.6264C13 20.8525 13.8153 21.9254 15.028 22.2971L16.4076 22.7197C16.2577 23.034 16.1395 23.3627 16.0603 23.7073C15.4089 24.0209 14.95 24.6706 14.95 25.4383C14.95 26.091 15.2961 26.6401 15.7946 26.9913L14.2389 33.9463C14.1036 34.5512 14.5667 35.1252 15.1907 35.1252H18.6099C19.2339 35.1252 19.697 34.5512 19.5618 33.9463L18.0054 26.9913C18.5033 26.6401 18.85 26.091 18.85 25.4383C18.85 24.7965 18.5155 24.2552 18.0316 23.9028C18.1005 23.6879 18.212 23.499 18.3272 23.3076L21.6708 24.3321L20.8 31.2502C20.8 33.3899 26.0382 35.1252 32.5 35.1252C38.9618 35.1252 44.2 33.3905 44.2 31.2502L43.3298 24.3321L49.972 22.2965C51.1853 21.9248 52 20.8519 52 19.6258C52 18.3997 51.1847 17.3274 49.972 16.9557ZM41.1799 30.6732C37.542 32.7439 27.4142 32.7184 23.8207 30.6732L24.5093 25.2022L30.7505 27.1148C31.4299 27.3225 32.7151 27.5853 34.2507 27.1148L40.492 25.2022L41.1799 30.6732V30.6732ZM33.3891 24.3369C32.8138 24.5131 32.1856 24.5131 31.6103 24.3369L22.4222 21.5203L32.6785 19.6094C33.2081 19.5114 33.5567 19.0052 33.4573 18.479C33.3586 17.9511 32.8425 17.6096 32.3202 17.7065L19.9024 20.0193C19.4978 20.0944 19.1224 20.2337 18.7622 20.399L16.2413 19.6252L31.6109 14.9152C32.1862 14.7391 32.8144 14.7391 33.3897 14.9152L48.7593 19.627L33.3891 24.3369V24.3369Z" fill="black"/>
</svg>
